<?xml version="1.0" encoding="utf-8"?>
<!-- Generator: Adobe Illustrator 25.0.1, SVG Export Plug-In . SVG Version: 6.00 Build 0)  -->
<svg version="1.1" id="圖層_1" focusable="false" xmlns="http://www.w3.org/2000/svg" xmlns:xlink="http://www.w3.org/1999/xlink"
	 x="0px" y="0px" viewBox="0 0 512 512" style="enable-background:new 0 0 512 512;" xml:space="preserve">
<style type="text/css">
	.st0{fill:#FFFFFF;stroke:#000000;stroke-miterlimit:10;}
</style>
<path class="st0" d="M428.6,121.5C379.3,80,303.2,86.2,256,134.3c-47.2-48-123.3-54.3-172.6-12.8c-64.1,54-54.8,142-9,188.7
	l149.6,152.4c8.5,8.7,20,13.6,32.1,13.6c12.2,0,23.5-4.8,32.1-13.5l149.6-152.4C483.3,263.6,492.9,175.5,428.6,121.5z M408.5,281.4
	L258.9,433.8c-2,2-3.8,2-5.8,0L103.5,281.4c-31.1-31.7-37.4-91.8,6.2-128.5c33.2-27.9,84.4-23.7,116.4,9l29.9,30.4l29.9-30.4
	c32.2-32.8,83.4-36.8,116.4-9C445.9,189.5,439.4,249.9,408.5,281.4L408.5,281.4z"/>
</svg>
